<svg width="43" height="71" viewBox="0 0 43 71" fill="none" xmlns="http://www.w3.org/2000/svg">
<path d="M21.2211 66.6545V76M21.2211 76H13.1326M21.2211 76H29.3097" stroke="black" stroke-width="2" stroke-linecap="round"/>
<path d="M0.999939 39.6562V46.6544C0.999939 57.7001 9.95425 66.6544 20.9999 66.6544H21.4425C32.4882 66.6544 41.4425 57.7001 41.4425 46.6544V39.6562" stroke="black" stroke-width="2" stroke-linecap="round" stroke-linejoin="round"/>
<rect x="8.06635" y="1.1972" width="26.3098" height="58.2269" rx="13.1549" fill="#F21040" stroke="black" stroke-width="2"/>
<path d="M23.041 4.42629C23.7872 4.42629 24.3921 3.805 24.3921 3.03861C24.3921 2.27222 23.7872 1.65094 23.041 1.65094C22.2948 1.65094 21.6898 2.27222 21.6898 3.03861C21.6898 3.805 22.2948 4.42629 23.041 4.42629Z" fill="black"/>
<path d="M18.7625 8.82057C19.5087 8.82057 20.1137 8.19929 20.1137 7.4329C20.1137 6.66651 19.5087 6.04523 18.7625 6.04523C18.0163 6.04523 17.4114 6.66651 17.4114 7.4329C17.4114 8.19929 18.0163 8.82057 18.7625 8.82057Z" fill="black"/>
<path d="M18.7625 17.6091C19.5087 17.6091 20.1137 16.9879 20.1137 16.2215C20.1137 15.4551 19.5087 14.8338 18.7625 14.8338C18.0163 14.8338 17.4114 15.4551 17.4114 16.2215C17.4114 16.9879 18.0163 17.6091 18.7625 17.6091Z" fill="black"/>
<path d="M14.4837 10.4395C15.1592 10.4395 15.8348 11.1334 15.8348 11.8272C15.8348 12.521 15.1592 13.2149 14.4837 13.2149C13.8081 13.2149 13.1325 12.521 13.1325 11.8272C13.1325 11.1334 13.5829 10.4395 14.4837 10.4395Z" fill="black"/>
<path d="M23.041 13.2149C23.7872 13.2149 24.3921 12.5936 24.3921 11.8272C24.3921 11.0608 23.7872 10.4395 23.041 10.4395C22.2948 10.4395 21.6898 11.0608 21.6898 11.8272C21.6898 12.5936 22.2948 13.2149 23.041 13.2149Z" fill="black"/>
<path d="M14.4837 19.2281C15.1592 19.2281 15.8348 19.9219 15.8348 20.6158C15.8348 21.3096 15.1592 22.0034 14.4837 22.0034C13.8081 22.0034 13.1325 21.3096 13.1325 20.6158C13.1325 19.6906 13.5829 19.2281 14.4837 19.2281Z" fill="black"/>
<path d="M23.041 22.0034C23.7872 22.0034 24.3921 21.3822 24.3921 20.6158C24.3921 19.8494 23.7872 19.2281 23.041 19.2281C22.2948 19.2281 21.6898 19.8494 21.6898 20.6158C21.6898 21.3822 22.2948 22.0034 23.041 22.0034Z" fill="black"/>
<path d="M27.3197 8.82057C28.0659 8.82057 28.6708 8.19929 28.6708 7.4329C28.6708 6.66651 28.0659 6.04523 27.3197 6.04523C26.5734 6.04523 25.9685 6.66651 25.9685 7.4329C25.9685 8.19929 26.5734 8.82057 27.3197 8.82057Z" fill="black"/>
<path d="M27.3197 17.6091C28.0659 17.6091 28.6708 16.9879 28.6708 16.2215C28.6708 15.4551 28.0659 14.8338 27.3197 14.8338C26.5734 14.8338 25.9685 15.4551 25.9685 16.2215C25.9685 16.9879 26.5734 17.6091 27.3197 17.6091Z" fill="black"/>
<path d="M31.5984 10.4395C32.274 10.4395 32.9496 11.1334 32.9496 11.8272C32.9496 12.521 32.274 13.2149 31.5984 13.2149C30.9228 13.2149 30.2473 12.521 30.2473 11.8272C30.0221 11.1334 30.6976 10.4395 31.5984 10.4395Z" fill="black"/>
<path d="M31.5984 19.2281C32.274 19.2281 32.9496 19.9219 32.9496 20.6158C32.9496 21.3096 32.274 22.0034 31.5984 22.0034C30.9228 22.0034 30.2473 21.3096 30.2473 20.6158C30.0221 19.6906 30.6976 19.2281 31.5984 19.2281Z" fill="black"/>
<path d="M18.7625 26.3977C19.5087 26.3977 20.1137 25.7764 20.1137 25.01C20.1137 24.2437 19.5087 23.6224 18.7625 23.6224C18.0163 23.6224 17.4114 24.2437 17.4114 25.01C17.4114 25.7764 18.0163 26.3977 18.7625 26.3977Z" fill="black"/>
<path d="M18.7625 34.955C19.5087 34.955 20.1137 34.3338 20.1137 33.5674C20.1137 32.801 19.5087 32.1797 18.7625 32.1797C18.0163 32.1797 17.4114 32.801 17.4114 33.5674C17.4114 34.3338 18.0163 34.955 18.7625 34.955Z" fill="black"/>
<path d="M14.4837 27.7854C15.1592 27.7854 15.8348 28.4792 15.8348 29.1731C15.8348 29.8669 15.1592 30.5607 14.4837 30.5607C13.8081 30.5607 13.1325 29.8669 13.1325 29.1731C13.1325 28.4792 13.5829 27.7854 14.4837 27.7854Z" fill="black"/>
<path d="M23.041 30.792C23.7872 30.792 24.3921 30.1707 24.3921 29.4043C24.3921 28.6379 23.7872 28.0167 23.041 28.0167C22.2948 28.0167 21.6898 28.6379 21.6898 29.4043C21.6898 30.1707 22.2948 30.792 23.041 30.792Z" fill="black"/>
<path d="M14.4837 36.574C15.1592 36.574 15.8348 37.2679 15.8348 37.9617C15.8348 38.6555 15.1592 39.3494 14.4837 39.3494C13.8081 39.3494 13.1325 38.6555 13.1325 37.9617C13.1325 37.2679 13.5829 36.574 14.4837 36.574Z" fill="black"/>
<path d="M23.041 39.3494C23.7872 39.3494 24.3921 38.7281 24.3921 37.9617C24.3921 37.1953 23.7872 36.574 23.041 36.574C22.2948 36.574 21.6898 37.1953 21.6898 37.9617C21.6898 38.7281 22.2948 39.3494 23.041 39.3494Z" fill="black"/>
<path d="M27.3197 26.3977C28.0659 26.3977 28.6708 25.7764 28.6708 25.01C28.6708 24.2437 28.0659 23.6224 27.3197 23.6224C26.5734 23.6224 25.9685 24.2437 25.9685 25.01C25.9685 25.7764 26.5734 26.3977 27.3197 26.3977Z" fill="black"/>
<path d="M27.3197 34.955C28.0659 34.955 28.6708 34.3338 28.6708 33.5674C28.6708 32.801 28.0659 32.1797 27.3197 32.1797C26.5734 32.1797 25.9685 32.801 25.9685 33.5674C25.9685 34.3338 26.5734 34.955 27.3197 34.955Z" fill="black"/>
<path d="M31.5982 27.7854C32.2738 27.7854 32.9494 28.4792 32.9494 29.1731C32.9494 29.8669 32.2738 30.5607 31.5982 30.5607C30.9226 30.5607 30.2471 29.8669 30.2471 29.1731C30.2471 28.4792 30.6975 27.7854 31.5982 27.7854Z" fill="black"/>
<path d="M31.5984 36.574C32.274 36.574 32.9496 37.2679 32.9496 37.9617C32.9496 38.6555 32.274 39.3494 31.5984 39.3494C30.9228 39.3494 30.2473 38.6555 30.2473 37.9617C30.0221 37.2679 30.6976 36.574 31.5984 36.574Z" fill="black"/>
<path d="M18.7625 43.7437C19.5087 43.7437 20.1137 43.1224 20.1137 42.356C20.1137 41.5896 19.5087 40.9683 18.7625 40.9683C18.0163 40.9683 17.4114 41.5896 17.4114 42.356C17.4114 43.1224 18.0163 43.7437 18.7625 43.7437Z" fill="black"/>
<path d="M18.7625 52.5322C19.5087 52.5322 20.1137 51.911 20.1137 51.1446C20.1137 50.3782 19.5087 49.7569 18.7625 49.7569C18.0163 49.7569 17.4114 50.3782 17.4114 51.1446C17.4114 51.911 18.0163 52.5322 18.7625 52.5322Z" fill="black"/>
<path d="M14.4837 45.3626C15.1592 45.3626 15.8348 46.0564 15.8348 46.7503C15.8348 47.4441 15.1592 48.138 14.4837 48.138C13.8081 48.138 13.1325 47.4441 13.1325 46.7503C13.1325 46.0564 13.5829 45.3626 14.4837 45.3626Z" fill="black"/>
<path d="M23.041 48.138C23.7872 48.138 24.3921 47.5167 24.3921 46.7503C24.3921 45.9839 23.7872 45.3626 23.041 45.3626C22.2948 45.3626 21.6898 45.9839 21.6898 46.7503C21.6898 47.5167 22.2948 48.138 23.041 48.138Z" fill="black"/>
<path d="M14.4837 54.1512C15.1592 54.1512 15.8348 54.845 15.8348 55.5389C15.8348 56.2327 15.1592 56.9265 14.4837 56.9265C13.8081 56.9265 13.1325 56.2327 13.1325 55.5389C13.1325 54.845 13.5829 54.1512 14.4837 54.1512Z" fill="black"/>
<path d="M23.041 56.9265C23.7872 56.9265 24.3921 56.3052 24.3921 55.5389C24.3921 54.7725 23.7872 54.1512 23.041 54.1512C22.2948 54.1512 21.6898 54.7725 21.6898 55.5389C21.6898 56.3052 22.2948 56.9265 23.041 56.9265Z" fill="black"/>
<path d="M27.3197 43.7437C28.0659 43.7437 28.6708 43.1224 28.6708 42.356C28.6708 41.5896 28.0659 40.9683 27.3197 40.9683C26.5734 40.9683 25.9685 41.5896 25.9685 42.356C25.9685 43.1224 26.5734 43.7437 27.3197 43.7437Z" fill="black"/>
<path d="M27.3197 52.5322C28.0659 52.5322 28.6708 51.911 28.6708 51.1446C28.6708 50.3782 28.0659 49.7569 27.3197 49.7569C26.5734 49.7569 25.9685 50.3782 25.9685 51.1446C25.9685 51.911 26.5734 52.5322 27.3197 52.5322Z" fill="black"/>
<path d="M31.5982 45.3626C32.2738 45.3626 32.9494 46.0564 32.9494 46.7503C32.9494 47.4441 32.2738 48.138 31.5982 48.138C30.9226 48.138 30.2471 47.4441 30.2471 46.7503C30.2471 46.0564 30.6975 45.3626 31.5982 45.3626Z" fill="black"/>
</svg>
