<svg width="26" height="35" viewBox="0 0 26 35" fill="currentColor" xmlns="http://www.w3.org/2000/svg">
<path d="M0 0H11.6971C18.8196 0 24.3207 1.9717 24.3207 8.52469C24.3207 11.5982 22.5835 14.9037 18.588 15.9475V16.1795C23.4521 17.0494 26 19.659 26 24.2403C26 31.2572 20.0935 34.3307 12.6815 34.3307H0V0ZM11.3497 13.8599C15.1136 13.8599 16.735 12.2361 16.735 9.62652C16.735 7.07491 14.9978 5.97308 11.3497 5.97308H7.70156V13.8019H11.3497V13.8599ZM12.1024 28.2996C16.3296 28.2996 18.4722 26.7339 18.4722 23.6024C18.4722 20.5868 16.3875 19.311 12.1024 19.311H7.75946V28.2996H12.1024Z" fill="currentColor"/>
</svg>
