<svg width="37" height="37" viewBox="0 0 37 37" fill="none" xmlns="http://www.w3.org/2000/svg">
<path d="M22.9606 26.3584H3.39776C1.54444 26.3584 0 24.8551 0 23.0511V3.30733C0 1.50333 1.54444 0 3.39776 0H22.9606C24.814 0 26.3584 1.50333 26.3584 3.30733V23.0511C26.3584 24.8551 24.814 26.3584 22.9606 26.3584Z" fill="#6BBDA4"/>
<path d="M32.8213 35.9999H8.7626C7.01004 35.9999 5.58398 34.5735 5.58398 32.9325V8.65138C5.58398 7.01034 7.01004 5.58398 8.7626 5.58398H32.8213C34.5739 5.58398 35.9999 7.01035 35.9999 8.65138V32.9325C35.9999 34.5735 34.5739 35.9999 32.8213 35.9999Z" stroke="black" stroke-width="2"/>
<path d="M19.5642 30.8443H21.185M22.8058 30.8443H21.185M21.185 30.8443V10.3142M11.4602 14.6363L13.6213 10.3142H28.7487L30.9098 14.6363" stroke="black" stroke-width="2" stroke-linecap="round"/>
</svg>
