<svg width="41" height="35" viewBox="0 0 41 35" fill="none" xmlns="http://www.w3.org/2000/svg">
<path d="M36.2931 4.96338C35.3606 4.96338 29.6873 10.248 27.2781 13.0458V7.91657C27.2781 7.21713 26.501 6.5954 25.4907 6.5954L1.94289 6.36226C0.932586 6.36226 0.155431 6.90627 0.155431 7.60571L0 24.3923C0 25.0917 0.777155 25.7134 1.78746 25.7134L25.3353 25.8688C26.3456 25.8688 27.1227 25.3248 27.1227 24.6254V19.4185C29.9205 22.5271 35.2828 27.6563 36.06 27.6563C37.148 27.6563 37.3034 26.5683 37.3034 26.5683L37.4589 6.20683C37.5366 6.0514 37.5366 4.96338 36.2931 4.96338Z" fill="#6C64BF"/>
<path d="M38.4692 10.7922C37.5366 10.7922 31.8633 16.0769 29.4542 18.8746V13.7454C29.4542 13.046 28.677 12.4243 27.6667 12.4243L4.11891 12.2688C3.10861 12.1911 2.33146 12.8128 2.33146 13.5123L2.17603 30.2211C2.17603 30.9206 2.95318 31.5423 3.96348 31.5423L27.5113 31.6977C28.5216 31.6977 29.2987 31.1537 29.2987 30.4543V25.2473C32.0965 28.3559 37.4589 33.4852 38.236 33.4852C39.324 33.4852 39.4795 32.3971 39.4795 32.3971L39.6349 12.0357C39.7126 11.8803 39.7126 10.7922 38.4692 10.7922Z" stroke="black" stroke-width="2" stroke-miterlimit="10" stroke-linecap="round" stroke-linejoin="round"/>
<path d="M8.39336 12.2689C10.8828 12.2689 12.9009 10.2508 12.9009 7.76141C12.9009 5.27198 10.8828 3.25391 8.39336 3.25391C5.90394 3.25391 3.88586 5.27198 3.88586 7.76141C3.88586 10.2508 5.90394 12.2689 8.39336 12.2689Z" stroke="black" stroke-width="2" stroke-miterlimit="10" stroke-linecap="round" stroke-linejoin="round"/>
<path d="M20.9055 12.3465C24.0388 12.3465 26.5788 9.80647 26.5788 6.67323C26.5788 3.53999 24.0388 1 20.9055 1C17.7723 1 15.2323 3.53999 15.2323 6.67323C15.2323 9.80647 17.7723 12.3465 20.9055 12.3465Z" stroke="black" stroke-width="2" stroke-miterlimit="10" stroke-linecap="round" stroke-linejoin="round"/>
</svg>
