<svg width="38" height="39" viewBox="0 0 38 39" fill="none" xmlns="http://www.w3.org/2000/svg">
<rect x="8.95398" y="12.158" width="28.8" height="26.7936" rx="3" fill="#00FFFF"/>
<path d="M19.1136 22.9841L19.111 22.9868C19.1084 22.9893 19.1059 22.9918 19.1034 22.9942L11.6273 25.0808L13.6995 17.7691C13.7015 17.7672 13.7036 17.7651 13.7057 17.763L14.3034 17.1699L13.599 16.4601L14.3034 17.1699L27.3338 4.23909L29.7247 1.86647C30.8889 0.711177 32.8899 0.711177 34.0541 1.86647L35.13 2.93415C36.2895 4.08479 36.2899 6.05626 35.1313 7.20752C35.1309 7.20795 35.1304 7.20838 35.13 7.20882L32.6222 9.67885L19.6536 22.4523L19.1136 22.9841Z" stroke="black" stroke-width="2"/>
<path d="M13.5522 3.55884H4C2.34314 3.55884 1 4.90198 1 6.55884V30.8098C1 32.4666 2.34315 33.8098 4 33.8098H30.8749C32.5318 33.8098 33.8749 32.4666 33.8749 30.8098V21.9467" stroke="black" stroke-width="2" stroke-linecap="round"/>
</svg>
