<svg width="30" height="47" viewBox="0 0 30 47" fill="none" xmlns="http://www.w3.org/2000/svg">
<rect width="18.9922" height="32.3944" rx="9.49611" fill="#F21040"/>
<path d="M17.0322 40.4888V46.0002M17.0322 46.0002H12.2451M17.0322 46.0002H21.8193" stroke="black" stroke-width="2" stroke-linecap="round"/>
<path d="M5.06458 24.5667V28.521C5.06458 35.1306 10.4227 40.4887 17.0323 40.4887V40.4887C23.6419 40.4887 29 35.1306 29 28.521V24.5667" stroke="black" stroke-width="2" stroke-linecap="round" stroke-linejoin="round"/>
<rect x="9.65491" y="2.2959" width="14.7548" height="33.5184" rx="7.37739" stroke="black" stroke-width="2"/>
<path d="M17.9089 2.97169C17.9089 2.89331 17.9769 2.79006 18.1092 2.79006C18.2416 2.79006 18.3096 2.89331 18.3096 2.97169C18.3096 3.05007 18.2416 3.15332 18.1092 3.15332C17.9769 3.15332 17.9089 3.05007 17.9089 2.97169Z" fill="black" stroke="black" stroke-width="2"/>
<path d="M15.3768 5.56324C15.3768 5.48486 15.4448 5.38162 15.5771 5.38162C15.7094 5.38162 15.7775 5.48486 15.7775 5.56324C15.7775 5.64163 15.7094 5.74487 15.5771 5.74487C15.4448 5.74487 15.3768 5.64163 15.3768 5.56324Z" fill="black" stroke="black" stroke-width="2"/>
<path d="M15.3768 10.7461C15.3768 10.6677 15.4448 10.5645 15.5771 10.5645C15.7094 10.5645 15.7775 10.6677 15.7775 10.7461C15.7775 10.8245 15.7094 10.9277 15.5771 10.9277C15.4448 10.9277 15.3768 10.8245 15.3768 10.7461Z" fill="black" stroke="black" stroke-width="2"/>
<path d="M13.0447 8.33643C12.9741 8.33643 12.9274 8.31874 12.9073 8.30913C12.8876 8.29972 12.8803 8.29219 12.8792 8.2911L12.8792 8.29105L12.8791 8.29099C12.878 8.28987 12.8726 8.28438 12.8657 8.2692C12.8586 8.25367 12.8443 8.215 12.8443 8.1548C12.8443 8.0946 12.8586 8.05592 12.8657 8.0404C12.8727 8.02521 12.878 8.01973 12.8791 8.01861L12.8792 8.01854L12.8792 8.01849C12.8803 8.01741 12.8876 8.00988 12.9073 8.00047C12.9274 7.99086 12.9741 7.97317 13.0447 7.97317C13.1152 7.97317 13.1619 7.99086 13.182 8.00047C13.2017 8.00988 13.209 8.01741 13.2101 8.01849L13.2101 8.01854L13.2102 8.01861C13.2113 8.01973 13.2167 8.02521 13.2236 8.0404C13.2307 8.05592 13.245 8.0946 13.245 8.1548L13.245 8.15489C13.245 8.15797 13.2451 8.19586 13.1999 8.24792C13.1749 8.27669 13.1414 8.30247 13.1035 8.31945C13.0699 8.33445 13.0474 8.3362 13.0447 8.3364C13.0445 8.33641 13.0444 8.33642 13.0444 8.33642C13.0444 8.33643 13.0445 8.33643 13.0447 8.33643Z" fill="black" stroke="black" stroke-width="2"/>
<path d="M17.9089 8.1548C17.9089 8.07642 17.9769 7.97317 18.1092 7.97317C18.2416 7.97317 18.3096 8.07642 18.3096 8.1548C18.3096 8.23318 18.2416 8.33643 18.1092 8.33643C17.9769 8.33643 17.9089 8.23318 17.9089 8.1548Z" fill="black" stroke="black" stroke-width="2"/>
<path d="M13.0139 13.5181C12.9604 13.5141 12.9244 13.5001 12.9073 13.492C12.8876 13.4826 12.8803 13.475 12.8792 13.474L12.8792 13.4739L12.8791 13.4738C12.878 13.4727 12.8727 13.4672 12.8657 13.4521C12.8586 13.4365 12.8443 13.3979 12.8443 13.3377C12.8443 13.2775 12.8586 13.2388 12.8657 13.2233C12.8727 13.2081 12.878 13.2026 12.8791 13.2015L12.8792 13.2014L12.8792 13.2014C12.8803 13.2003 12.8876 13.1927 12.9073 13.1833C12.9274 13.1737 12.9741 13.156 13.0447 13.156C13.1152 13.156 13.1619 13.1737 13.182 13.1833C13.2017 13.1927 13.209 13.2003 13.2101 13.2014L13.2101 13.2014L13.2102 13.2015C13.2113 13.2026 13.2167 13.2081 13.2236 13.2233C13.229 13.2351 13.2386 13.2603 13.2428 13.2982C13.2392 13.3083 13.2334 13.3218 13.2246 13.3377C13.2112 13.3618 13.1909 13.3913 13.1601 13.4228C13.1189 13.465 13.0767 13.491 13.0447 13.5059C13.0345 13.5106 13.0254 13.5142 13.0177 13.5169C13.0163 13.5173 13.0151 13.5178 13.0139 13.5181ZM13.2486 13.2782C13.2487 13.2782 13.2485 13.2792 13.2481 13.281L13.2486 13.2782Z" fill="black" stroke="black" stroke-width="2"/>
<path d="M17.9089 13.3377C17.9089 13.2593 17.9769 13.156 18.1092 13.156C18.2416 13.156 18.3096 13.2593 18.3096 13.3377C18.3096 13.416 18.2416 13.5193 18.1092 13.5193C17.9769 13.5193 17.9089 13.416 17.9089 13.3377Z" fill="black" stroke="black" stroke-width="2"/>
<path d="M20.4412 5.56324C20.4412 5.48486 20.5093 5.38162 20.6416 5.38162C20.7739 5.38162 20.8419 5.48486 20.8419 5.56324C20.8419 5.64163 20.7739 5.74487 20.6416 5.74487C20.5093 5.74487 20.4412 5.64163 20.4412 5.56324Z" fill="black" stroke="black" stroke-width="2"/>
<path d="M20.4412 10.7461C20.4412 10.6677 20.5093 10.5645 20.6416 10.5645C20.7739 10.5645 20.8419 10.6677 20.8419 10.7461C20.8419 10.8245 20.7739 10.9277 20.6416 10.9277C20.5093 10.9277 20.4412 10.8245 20.4412 10.7461Z" fill="black" stroke="black" stroke-width="2"/>
<path d="M23.3471 8.02933C23.3448 8.06237 23.3391 8.09486 23.3304 8.12597C23.3275 8.13601 23.3245 8.14562 23.3212 8.1548C23.2973 8.22207 23.2635 8.26636 23.2394 8.29105C23.2075 8.3237 23.1835 8.3333 23.1739 8.33588C23.173 8.33611 23.1723 8.33629 23.1717 8.33642C23.1023 8.33605 23.0565 8.31864 23.0365 8.30913C23.0168 8.29972 23.0095 8.29219 23.0085 8.2911L23.0084 8.29105L23.0083 8.29099C23.0073 8.28987 23.0019 8.28439 22.995 8.2692C22.9879 8.25368 22.9735 8.215 22.9735 8.1548C22.9735 8.0946 22.9879 8.05592 22.995 8.0404C23.0019 8.02521 23.0073 8.01973 23.0083 8.01861L23.0084 8.01854L23.0085 8.01849C23.0095 8.01741 23.0168 8.00988 23.0365 8.00047C23.0567 7.99086 23.1033 7.97317 23.1739 7.97317C23.2445 7.97317 23.2911 7.99086 23.3112 8.00047C23.3309 8.00988 23.3382 8.01741 23.3393 8.01849L23.3393 8.01854L23.3394 8.01861C23.3402 8.01939 23.3431 8.02235 23.3471 8.02933ZM23.1693 8.33675C23.1693 8.3367 23.1699 8.33657 23.1713 8.33649L23.1693 8.33675Z" fill="black" stroke="black" stroke-width="2"/>
<path d="M23.3418 13.2042C23.3399 13.214 23.3376 13.2245 23.3347 13.2355C23.3251 13.2718 23.3112 13.3061 23.2943 13.3377C23.2678 13.3872 23.2339 13.4301 23.1971 13.4636C23.189 13.4709 23.1813 13.4774 23.1739 13.4832C23.1535 13.4991 23.136 13.5095 23.1231 13.5161C23.0806 13.5105 23.0514 13.4991 23.0365 13.492C23.0168 13.4826 23.0095 13.475 23.0085 13.474L23.0084 13.4739L23.0084 13.4739C23.0073 13.4727 23.0019 13.4672 22.995 13.4521C22.9879 13.4365 22.9735 13.3979 22.9735 13.3377C22.9735 13.2775 22.9879 13.2388 22.995 13.2233C23.0019 13.2081 23.0073 13.2026 23.0083 13.2015L23.0084 13.2014L23.0085 13.2014C23.0095 13.2003 23.0168 13.1927 23.0365 13.1833C23.0567 13.1737 23.1033 13.156 23.1739 13.156C23.2445 13.156 23.2911 13.1737 23.3112 13.1833C23.3309 13.1927 23.3382 13.2003 23.3393 13.2014L23.3393 13.2014L23.3394 13.2015C23.3398 13.2018 23.3406 13.2027 23.3418 13.2042Z" fill="black" stroke="black" stroke-width="2"/>
<path d="M15.3768 15.9292C15.3768 15.8508 15.4448 15.7476 15.5771 15.7476C15.7094 15.7476 15.7775 15.8508 15.7775 15.9292C15.7775 16.0076 15.7094 16.1108 15.5771 16.1108C15.4448 16.1108 15.3768 16.0076 15.3768 15.9292Z" fill="black" stroke="black" stroke-width="2"/>
<path d="M15.3768 20.9758C15.3768 20.8975 15.4448 20.7942 15.5771 20.7942C15.7094 20.7942 15.7775 20.8975 15.7775 20.9758C15.7775 21.0542 15.7094 21.1575 15.5771 21.1575C15.4448 21.1575 15.3768 21.0542 15.3768 20.9758Z" fill="black" stroke="black" stroke-width="2"/>
<path d="M13.0447 18.5659C12.9741 18.5659 12.9274 18.5482 12.9073 18.5386C12.8876 18.5292 12.8803 18.5217 12.8792 18.5206L12.8792 18.5205L12.8791 18.5205C12.878 18.5194 12.8726 18.5139 12.8657 18.4987C12.8586 18.4832 12.8443 18.4445 12.8443 18.3843C12.8443 18.3241 12.8586 18.2854 12.8657 18.2699C12.8726 18.2547 12.878 18.2492 12.8791 18.2481L12.8792 18.248L12.8792 18.248C12.8803 18.2469 12.8876 18.2394 12.9073 18.23C12.9274 18.2203 12.9741 18.2027 13.0447 18.2027C13.1152 18.2027 13.1619 18.2203 13.182 18.23C13.2017 18.2394 13.209 18.2469 13.2101 18.248L13.2101 18.248L13.2102 18.2481C13.2113 18.2492 13.2167 18.2547 13.2236 18.2699C13.2307 18.2854 13.245 18.3241 13.245 18.3843L13.245 18.3844C13.245 18.3875 13.2451 18.4254 13.1999 18.4774C13.1749 18.5062 13.1414 18.532 13.1035 18.5489C13.0699 18.5639 13.0474 18.5657 13.0447 18.5659C13.0445 18.5659 13.0444 18.5659 13.0444 18.5659C13.0444 18.5659 13.0445 18.5659 13.0447 18.5659Z" fill="black" stroke="black" stroke-width="2"/>
<path d="M17.9089 18.5208C17.9089 18.4424 17.9769 18.3391 18.1092 18.3391C18.2415 18.3391 18.3096 18.4424 18.3096 18.5208C18.3096 18.5991 18.2416 18.7024 18.1092 18.7024C17.9769 18.7024 17.9089 18.5991 17.9089 18.5208Z" fill="black" stroke="black" stroke-width="2"/>
<path d="M13.0447 23.749C12.9741 23.749 12.9274 23.7313 12.9073 23.7217C12.8876 23.7123 12.8803 23.7048 12.8792 23.7037L12.8792 23.7036L12.8791 23.7036C12.878 23.7025 12.8726 23.697 12.8657 23.6818C12.8586 23.6663 12.8443 23.6276 12.8443 23.5674C12.8443 23.5072 12.8586 23.4685 12.8657 23.453C12.8726 23.4378 12.878 23.4323 12.8791 23.4312L12.8792 23.4311L12.8792 23.4311C12.8803 23.43 12.8876 23.4225 12.9073 23.4131C12.9274 23.4035 12.9741 23.3858 13.0447 23.3858C13.1152 23.3858 13.1619 23.4035 13.182 23.4131C13.2017 23.4225 13.209 23.43 13.2101 23.4311L13.2101 23.4311L13.2102 23.4312C13.2113 23.4323 13.2167 23.4378 13.2236 23.453C13.2307 23.4685 13.245 23.5072 13.245 23.5674L13.245 23.5675C13.245 23.5706 13.2451 23.6085 13.1999 23.6605C13.1749 23.6893 13.1414 23.7151 13.1035 23.732C13.0699 23.7471 13.0474 23.7488 13.0447 23.749C13.0445 23.749 13.0444 23.749 13.0444 23.749C13.0444 23.749 13.0445 23.749 13.0447 23.749Z" fill="black" stroke="black" stroke-width="2"/>
<path d="M17.9089 23.5674C17.9089 23.489 17.9769 23.3858 18.1092 23.3858C18.2416 23.3858 18.3096 23.489 18.3096 23.5674C18.3096 23.6458 18.2416 23.749 18.1092 23.749C17.9769 23.749 17.9089 23.6458 17.9089 23.5674Z" fill="black" stroke="black" stroke-width="2"/>
<path d="M20.4412 15.9292C20.4412 15.8508 20.5093 15.7476 20.6416 15.7476C20.7739 15.7476 20.8419 15.8508 20.8419 15.9292C20.8419 16.0076 20.7739 16.1108 20.6416 16.1108C20.5093 16.1108 20.4412 16.0076 20.4412 15.9292Z" fill="black" stroke="black" stroke-width="2"/>
<path d="M20.4412 20.9758C20.4412 20.8975 20.5093 20.7942 20.6416 20.7942C20.7739 20.7942 20.8419 20.8975 20.8419 20.9758C20.8419 21.0542 20.7739 21.1575 20.6416 21.1575C20.5093 21.1575 20.4412 21.0542 20.4412 20.9758Z" fill="black" stroke="black" stroke-width="2"/>
<path d="M23.1738 18.5659C23.1032 18.5659 23.0566 18.5482 23.0365 18.5386C23.0168 18.5292 23.0094 18.5217 23.0084 18.5206L23.0083 18.5205L23.0083 18.5205C23.0072 18.5194 23.0018 18.5139 22.9949 18.4987C22.9878 18.4832 22.9735 18.4445 22.9735 18.3843C22.9735 18.3241 22.9878 18.2854 22.9949 18.2699C23.0018 18.2547 23.0072 18.2492 23.0083 18.2481L23.0083 18.248L23.0084 18.248C23.0094 18.2469 23.0168 18.2394 23.0365 18.23C23.0566 18.2203 23.1032 18.2027 23.1738 18.2027C23.2444 18.2027 23.291 18.2203 23.3111 18.23C23.3308 18.2394 23.3382 18.2469 23.3392 18.248L23.3393 18.248L23.3393 18.2481C23.3404 18.2492 23.3458 18.2547 23.3527 18.2699C23.3598 18.2854 23.3741 18.3241 23.3741 18.3843L23.3741 18.3844C23.3742 18.3875 23.3742 18.4254 23.329 18.4774C23.3041 18.5062 23.2705 18.532 23.2326 18.5489C23.1991 18.5639 23.1765 18.5657 23.1738 18.5659C23.1736 18.5659 23.1735 18.5659 23.1735 18.5659C23.1735 18.5659 23.1736 18.5659 23.1738 18.5659Z" fill="black" stroke="black" stroke-width="2"/>
<path d="M23.3471 23.4419C23.3448 23.475 23.3391 23.5075 23.3304 23.5386C23.3275 23.5486 23.3245 23.5582 23.3212 23.5674C23.2973 23.6347 23.2635 23.679 23.2394 23.7036C23.2075 23.7363 23.1835 23.7459 23.1739 23.7485C23.173 23.7487 23.1723 23.7489 23.1717 23.749C23.1023 23.7487 23.0565 23.7312 23.0365 23.7217C23.0168 23.7123 23.0095 23.7048 23.0085 23.7037L23.0084 23.7036L23.0083 23.7036C23.0073 23.7025 23.0019 23.697 22.995 23.6818C22.9879 23.6663 22.9735 23.6276 22.9735 23.5674C22.9735 23.5072 22.9879 23.4685 22.995 23.453C23.0019 23.4378 23.0073 23.4323 23.0083 23.4312L23.0084 23.4311L23.0085 23.4311C23.0095 23.43 23.0168 23.4225 23.0365 23.4131C23.0567 23.4035 23.1033 23.3858 23.1739 23.3858C23.2445 23.3858 23.2911 23.4035 23.3112 23.4131C23.3309 23.4225 23.3382 23.43 23.3393 23.4311L23.3393 23.4311L23.3394 23.4312C23.3402 23.432 23.3431 23.4349 23.3471 23.4419ZM23.1693 23.7493C23.1693 23.7493 23.1699 23.7492 23.1713 23.7491L23.1693 23.7493Z" fill="black" stroke="black" stroke-width="2"/>
<path d="M15.3768 26.1589C15.3768 26.0806 15.4448 25.9773 15.5771 25.9773C15.7094 25.9773 15.7775 26.0806 15.7775 26.1589C15.7775 26.2373 15.7094 26.3406 15.5771 26.3406C15.4448 26.3406 15.3768 26.2373 15.3768 26.1589Z" fill="black" stroke="black" stroke-width="2"/>
<path d="M15.3768 31.3418C15.3768 31.2634 15.4448 31.1602 15.5771 31.1602C15.7094 31.1602 15.7775 31.2634 15.7775 31.3418C15.7775 31.4202 15.7094 31.5234 15.5771 31.5234C15.4448 31.5234 15.3768 31.4202 15.3768 31.3418Z" fill="black" stroke="black" stroke-width="2"/>
<path d="M13.0447 28.9319C12.9741 28.9319 12.9274 28.9142 12.9073 28.9046C12.8876 28.8952 12.8803 28.8876 12.8792 28.8866L12.8792 28.8865L12.8791 28.8864C12.878 28.8853 12.8727 28.8798 12.8657 28.8647C12.8586 28.8491 12.8443 28.8105 12.8443 28.7503C12.8443 28.6901 12.8586 28.6514 12.8657 28.6359C12.8727 28.6207 12.878 28.6152 12.8791 28.6141L12.8792 28.614L12.8792 28.6139C12.8803 28.6129 12.8876 28.6053 12.9073 28.5959C12.9274 28.5863 12.9741 28.5686 13.0447 28.5686C13.1152 28.5686 13.1619 28.5863 13.182 28.5959C13.2017 28.6053 13.209 28.6129 13.2101 28.6139L13.2101 28.614L13.2102 28.6141C13.2113 28.6152 13.2167 28.6207 13.2236 28.6359C13.2307 28.6514 13.245 28.6901 13.245 28.7503L13.245 28.7503C13.245 28.7534 13.2451 28.7913 13.1999 28.8434C13.1749 28.8721 13.1414 28.8979 13.1035 28.9149C13.0699 28.9299 13.0474 28.9317 13.0447 28.9319C13.0445 28.9319 13.0444 28.9319 13.0444 28.9319C13.0444 28.9319 13.0445 28.9319 13.0447 28.9319Z" fill="black" stroke="black" stroke-width="2"/>
<path d="M17.9089 28.7503C17.9089 28.6719 17.9769 28.5686 18.1092 28.5686C18.2415 28.5686 18.3096 28.6719 18.3096 28.7503C18.3096 28.8286 18.2416 28.9319 18.1092 28.9319C17.9769 28.9319 17.9089 28.8286 17.9089 28.7503Z" fill="black" stroke="black" stroke-width="2"/>
<path d="M13.0447 34.115C12.9741 34.115 12.9274 34.0973 12.9073 34.0877C12.8876 34.0783 12.8803 34.0707 12.8792 34.0697L12.8792 34.0696L12.8791 34.0696C12.878 34.0684 12.8726 34.0629 12.8657 34.0478C12.8586 34.0322 12.8443 33.9936 12.8443 33.9334C12.8443 33.8732 12.8586 33.8345 12.8657 33.819C12.8726 33.8038 12.878 33.7983 12.8791 33.7972L12.8792 33.7971L12.8792 33.7971C12.8803 33.796 12.8876 33.7884 12.9073 33.779C12.9274 33.7694 12.9741 33.7517 13.0447 33.7517C13.1152 33.7517 13.1619 33.7694 13.182 33.779C13.2017 33.7884 13.209 33.796 13.2101 33.7971L13.2101 33.7971L13.2102 33.7972C13.2113 33.7983 13.2167 33.8038 13.2236 33.819C13.2307 33.8345 13.245 33.8732 13.245 33.9334L13.245 33.9335C13.245 33.9365 13.2451 33.9744 13.1999 34.0265C13.1749 34.0553 13.1414 34.081 13.1035 34.098C13.0699 34.113 13.0474 34.1148 13.0447 34.115C13.0445 34.115 13.0444 34.115 13.0444 34.115C13.0444 34.115 13.0445 34.115 13.0447 34.115Z" fill="black" stroke="black" stroke-width="2"/>
<path d="M17.9089 33.9334C17.9089 33.855 17.9769 33.7517 18.1092 33.7517C18.2416 33.7517 18.3096 33.855 18.3096 33.9334C18.3096 34.0117 18.2416 34.115 18.1092 34.115C17.9769 34.115 17.9089 34.0117 17.9089 33.9334Z" fill="black" stroke="black" stroke-width="2"/>
<path d="M20.4412 26.1589C20.4412 26.0806 20.5093 25.9773 20.6416 25.9773C20.7739 25.9773 20.8419 26.0806 20.8419 26.1589C20.8419 26.2373 20.7739 26.3406 20.6416 26.3406C20.5093 26.3406 20.4412 26.2373 20.4412 26.1589Z" fill="black" stroke="black" stroke-width="2"/>
<path d="M20.4412 31.3418C20.4412 31.2634 20.5093 31.1602 20.6416 31.1602C20.7739 31.1602 20.8419 31.2634 20.8419 31.3418C20.8419 31.4202 20.7739 31.5234 20.6416 31.5234C20.5093 31.5234 20.4412 31.4202 20.4412 31.3418Z" fill="black" stroke="black" stroke-width="2"/>
<path d="M23.1738 28.9319C23.1032 28.9319 23.0566 28.9142 23.0365 28.9046C23.0168 28.8952 23.0094 28.8876 23.0084 28.8866L23.0083 28.8865L23.0083 28.8864C23.0072 28.8853 23.0018 28.8798 22.9949 28.8647C22.9878 28.8491 22.9735 28.8105 22.9735 28.7503C22.9735 28.6901 22.9878 28.6514 22.9949 28.6359C23.0018 28.6207 23.0072 28.6152 23.0083 28.6141L23.0083 28.614L23.0084 28.6139C23.0094 28.6129 23.0168 28.6053 23.0365 28.5959C23.0566 28.5863 23.1032 28.5686 23.1738 28.5686C23.2444 28.5686 23.291 28.5863 23.3111 28.5959C23.3308 28.6053 23.3382 28.6129 23.3392 28.6139L23.3393 28.614L23.3393 28.6141C23.3404 28.6152 23.3458 28.6207 23.3527 28.6359C23.3598 28.6514 23.3741 28.6901 23.3741 28.7503L23.3741 28.7503C23.3742 28.7534 23.3742 28.7913 23.329 28.8434C23.304 28.8721 23.2705 28.8979 23.2326 28.9149C23.1991 28.9299 23.1765 28.9317 23.1738 28.9319C23.1736 28.9319 23.1735 28.9319 23.1735 28.9319C23.1735 28.9319 23.1736 28.9319 23.1738 28.9319Z" fill="black" stroke="black" stroke-width="2"/>
</svg>
