<svg width="73" height="71" viewBox="0 0 83 80" fill="none" xmlns="http://www.w3.org/2000/svg">
<rect x="1" y="6" width="77" height="72" rx="5" fill="#CDF9EC"/>
<path d="M55.3275 66.7789C52.6358 68.5963 49.1241 68.744 46.2747 67.1413C44.5402 66.1658 43.2797 64.6402 42.5297 62.8466C40.5425 64.3417 37.8625 64.9246 35.2469 64.2373C31.9603 63.4664 29.5642 60.7143 28.9659 57.4383C28.1009 57.409 27.2176 57.2388 26.4043 56.9446C24.5654 56.2695 23.0593 55.0631 22.1165 53.5531C18.0671 51.9939 14.5333 47.5567 15.6656 40.8122L18.3598 24.8868C19.0454 20.6673 22.7905 17.6787 26.956 17.7028C28.8205 16.3672 31.2711 15.786 33.6916 16.2983C36.8188 16.9468 39.2127 19.2404 40.0738 22.109C41.5732 21.9399 43.0749 22.2293 44.5432 22.9246C46.0115 23.6198 47.1815 24.6698 47.9465 25.9166C49.4104 25.6949 50.982 25.8604 52.3793 26.4503C54.5898 27.3344 56.3103 29.086 57.1325 31.2141C60.9697 32.6866 63.2302 36.6036 62.5263 40.6821L61.015 49.369C62.3661 51.3701 62.9255 53.9057 62.2493 56.4322C61.2437 60.1778 59.0542 63.6494 56.0836 66.1917C55.8552 66.4226 55.5914 66.6007 55.3275 66.7789Z" fill="#00FFFF"/>
<path d="M70.5 5.48608H6C3.23858 5.48608 1 7.72466 1 10.4861V72.623C1 75.3844 3.23858 77.623 6 77.623H72.7081C75.4695 77.623 77.7081 75.3844 77.7081 72.623V13.5" stroke="black" stroke-width="2" stroke-linecap="round"/>
<path d="M72.9447 2.37298C74.7083 0.542341 77.6928 0.542341 79.4564 2.37298L80.6773 3.64034C82.4409 5.47097 82.4409 8.56897 80.6773 10.3996L77.8285 13.3347L63.1117 28.4971L62.499 29.1284C62.3633 29.2692 62.2277 29.41 62.092 29.41L53.4098 31.9448C53.0028 32.0856 52.5959 31.9448 52.3245 31.6631C52.0532 31.3815 51.9176 31.0998 52.0532 30.6774L54.4951 21.665C54.4951 21.5242 54.6307 21.3834 54.7664 21.2426L55.4447 20.5385L70.2316 5.18934L72.9447 2.37298Z" fill="#00FFFF"/>
<path d="M79.4564 2.37298L78.7362 3.06677V3.06677L79.4564 2.37298ZM72.9447 2.37298L73.6649 3.06677V3.06677L72.9447 2.37298ZM54.7664 21.2426L55.4866 21.9364L55.4866 21.9364L54.7664 21.2426ZM54.4951 21.665L55.4603 21.9266L55.4951 21.7981V21.665H54.4951ZM52.0532 30.6774L53.0053 30.9831L53.0124 30.9612L53.0184 30.9389L52.0532 30.6774ZM53.4098 31.9448L53.1296 30.9848L53.106 30.9917L53.0828 30.9997L53.4098 31.9448ZM62.092 29.41V28.41H61.949L61.8118 28.4501L62.092 29.41ZM62.499 29.1284L61.7814 28.4319L61.7788 28.4346L62.499 29.1284ZM80.6773 10.3996L81.3949 11.0961L81.3975 11.0934L80.6773 10.3996ZM80.6773 3.64034L81.3975 2.94655V2.94654L80.6773 3.64034ZM70.2316 5.18934L69.5114 4.49554V4.49554L70.2316 5.18934ZM55.4447 20.5385L54.7245 19.8447H54.7245L55.4447 20.5385ZM63.1117 28.4971L63.8293 29.1936L63.8293 29.1936L63.1117 28.4971ZM80.1766 1.67918C78.0197 -0.559728 74.3815 -0.559728 72.2246 1.67918L73.6649 3.06677C75.0352 1.64441 77.366 1.64441 78.7362 3.06677L80.1766 1.67918ZM54.0462 20.5488C53.991 20.6062 53.8696 20.7294 53.7693 20.8682C53.6752 20.9984 53.4951 21.28 53.4951 21.665H55.4951C55.4951 21.7923 55.4642 21.89 55.4399 21.9478C55.4165 22.0034 55.3935 22.0352 55.3904 22.0395C55.3866 22.0447 55.3902 22.0392 55.4089 22.0185C55.428 21.9973 55.4506 21.9738 55.4866 21.9364L54.0462 20.5488ZM53.5299 21.4035L51.088 30.4159L53.0184 30.9389L55.4603 21.9266L53.5299 21.4035ZM51.1011 30.3716C50.9799 30.7492 50.9597 31.1414 51.0841 31.5288C51.2012 31.8933 51.4183 32.1638 51.6044 32.3569L53.0447 30.9693C53.0251 30.9489 53.0103 30.9323 52.9993 30.919C52.9883 30.9058 52.982 30.897 52.9788 30.8923C52.9729 30.8834 52.9804 30.8925 52.9884 30.9173C52.9923 30.9294 52.9955 30.943 52.9976 30.9573C52.9997 30.9717 53.0002 30.984 53 30.9935C52.9995 31.013 52.9962 31.0115 53.0053 30.9831L51.1011 30.3716ZM51.6044 32.3569C52.1002 32.8716 52.9031 33.1782 53.7368 32.8898L53.0828 30.9997C53.0794 31.0009 53.0806 31.0001 53.0846 31C53.0883 30.9999 53.0899 31.0005 53.0887 31.0002C53.0848 30.9991 53.0666 30.9921 53.0447 30.9693L51.6044 32.3569ZM53.6901 32.9047L62.3723 30.37L61.8118 28.4501L53.1296 30.9848L53.6901 32.9047ZM62.092 30.41C62.4981 30.41 62.7873 30.2065 62.9098 30.1111C63.045 30.0058 63.1644 29.879 63.2192 29.8222L61.7788 28.4346C61.7427 28.472 61.7201 28.4954 61.6998 28.5152C61.6798 28.5346 61.675 28.5378 61.6812 28.533C61.6861 28.5291 61.7202 28.5026 61.7802 28.4753C61.8427 28.447 61.9505 28.41 62.092 28.41V30.41ZM81.3975 11.0934C83.5342 8.87547 83.5342 5.16447 81.3975 2.94655L79.9571 4.33413C81.3476 5.77748 81.3476 8.26246 79.9571 9.70581L81.3975 11.0934ZM81.3975 2.94654L80.1766 1.67918L78.7362 3.06677L79.9571 4.33413L81.3975 2.94654ZM72.2246 1.67918L69.5114 4.49554L70.9517 5.88313L73.6649 3.06677L72.2246 1.67918ZM78.546 14.0312L81.3949 11.0961L79.9597 9.70312L77.1109 12.6382L78.546 14.0312ZM69.5003 5.87139L77.0972 14.0168L78.5598 12.6527L70.9629 4.50728L69.5003 5.87139ZM69.5114 4.49554L54.7245 19.8447L56.1649 21.2323L70.9517 5.88313L69.5114 4.49554ZM54.7245 19.8447L54.0462 20.5488L55.4866 21.9364L56.1649 21.2323L54.7245 19.8447ZM63.2165 29.8249L63.8293 29.1936L62.3942 27.8006L61.7814 28.4319L63.2165 29.8249ZM63.8293 29.1936L78.5461 14.0312L77.1109 12.6382L62.3942 27.8006L63.8293 29.1936ZM54.7245 21.2323L62.3916 29.1909L63.8319 27.8033L56.1649 19.8447L54.7245 21.2323Z" fill="black"/>
</svg>
