<svg width="70" height="62" viewBox="0 0 70 62" fill="none" xmlns="http://www.w3.org/2000/svg">
<path d="M13.9962 15.7909L32.5847 0.838995C33.3137 0.231195 34.5286 0.717435 34.5286 1.81148V53.8392C34.5286 54.8117 33.3137 55.4195 32.5847 54.8117L13.9962 39.252H4.3982C2.21132 39.252 0.388916 37.4286 0.388916 35.2405V19.9239C0.388916 17.7358 2.21132 15.9124 4.3982 15.9124L13.9962 15.7909Z" fill="#95E8CD"/>
<path d="M18.8561 19.1947L39.3885 2.78406V59.7957L18.8561 42.7773H9.25807C7.07118 42.7773 5.24878 40.9539 5.24878 38.7658V23.4493C5.24878 21.2612 7.07118 19.4378 9.25807 19.4378L18.8561 19.1947Z" stroke="black" stroke-width="3" stroke-miterlimit="10" stroke-linecap="round" stroke-linejoin="round"/>
<path d="M18.856 19.1946V42.7772" stroke="black" stroke-width="3" stroke-miterlimit="10" stroke-linecap="round" stroke-linejoin="round"/>
<path d="M49.9583 12.3871C56.2759 24.0569 56.2759 35.8482 49.9583 47.5179" stroke="black" stroke-width="3" stroke-miterlimit="10" stroke-linecap="round" stroke-linejoin="round"/>
<path d="M64.1731 15.791C69.2758 25.2727 69.2758 34.6328 64.1731 44.1145" stroke="black" stroke-width="3" stroke-miterlimit="10" stroke-linecap="round" stroke-linejoin="round"/>
</svg>
