<svg width="100%" height="100%" viewBox="0 0 68 68" fill="currentColor" xmlns="http://www.w3.org/2000/svg">
<path d="M19.8578 14.2011C18.2957 12.639 15.7631 12.639 14.201 14.2011C12.6389 15.7632 12.6389 18.2959 14.201 19.858L19.8578 14.2011ZM48.1421 53.7991C49.7042 55.3612 52.2369 55.3612 53.799 53.7991C55.3611 52.237 55.3611 49.7043 53.799 48.1422L48.1421 53.7991ZM14.201 19.858L48.1421 53.7991L53.799 48.1422L19.8578 14.2011L14.201 19.858Z" fill="currentColor"/>
<path d="M53.799 19.858C55.3611 18.2959 55.3611 15.7632 53.799 14.2011C52.2369 12.639 49.7043 12.639 48.1422 14.2011L53.799 19.858ZM14.201 48.1422C12.6389 49.7043 12.6389 52.237 14.201 53.7991C15.7631 55.3612 18.2958 55.3612 19.8579 53.7991L14.201 48.1422ZM48.1422 14.2011L14.201 48.1422L19.8579 53.7991L53.799 19.858L48.1422 14.2011Z" fill="currentColor"/>
</svg>
