<svg width="32" height="33" viewBox="0 0 60 55" fill="none" xmlns="http://www.w3.org/2000/svg">
<path d="M48.2999 47.0999H11C8.59995 47.0999 6.69995 45.1999 6.69995 42.7999V23.5C6.69995 21.1 8.59995 19.2 11 19.2H48.2999C50.7 19.2 52.5999 21.1 52.5999 23.5V42.7999C52.5999 45.1999 50.7 47.0999 48.2999 47.0999Z" fill="#95E8CD"/>
<path d="M38.9 13.2H49.2C54.2 13.2 58.2 17.1 58.2 21.8V44.5C58.2 49.2 54.1 53.0999 49.2 53.0999H10C5 53.0999 1 49.2 1 44.5V21.8C1 17.1 5.1 13.2 10 13.2H19.2" stroke="black" stroke-width="1.9843" stroke-miterlimit="10" stroke-linecap="round" stroke-linejoin="round"/>
<path d="M29.3999 1V34.4" stroke="black" stroke-width="1.9843" stroke-miterlimit="10" stroke-linecap="round" stroke-linejoin="round"/>
<path d="M36.6 33.2L29.2001 40.5999L21.8 33.2" stroke="black" stroke-width="1.9843" stroke-miterlimit="10" stroke-linecap="round" stroke-linejoin="round"/>
</svg>
