<svg width="70" height="78" viewBox="0 0 70 78" fill="none" xmlns="http://www.w3.org/2000/svg">
<g filter="url(#filter0_d)">
<path d="M13.5 15L12 19.5L11.5 22L15.5 22.5L18.5 20.5L26 19.5L30.5 18.5L38 19.5L45 21.5L49 23L51 19L48.5 15L42 11.5C39.3333 11 33.7 10 32.5 10C31.3 10 25 10.6667 22 11L13.5 15Z" fill="white"/>
<path d="M22.5269 61.8604L12.8696 57.7767V22.7895L22.5269 18.3196V61.8604Z" fill="#FFFF00"/>
<path d="M31.9635 18.3196H22.4166V62.5778H31.9635V18.3196Z" fill="#00FF2C"/>
<path d="M41.4553 18.3196H31.9083V62.5778H41.4553V18.3196Z" fill="#0018FF"/>
<path d="M50.7816 56.6178L41.4001 62.2467V18.3196L50.7816 23.6173V56.6178Z" fill="#FF5CAF"/>
<path d="M57.7348 33.6057L52.8786 28.7495V18.6507C52.8786 12.0837 42.3935 8 31.4117 8C20.154 8 10 12.194 10 18.6507V54.576C10 61.1429 20.4851 65.2266 31.4117 65.2266C42.6142 65.2266 52.8234 61.0326 52.8234 54.576V47.3467C53.596 47.2916 54.3686 47.0708 55.086 46.7949C58.0659 45.5808 59.9974 42.656 59.9974 39.4553V39.2898C60.0526 37.0824 59.2248 35.0957 57.7348 33.6057ZM17.0637 35.2061C15.0218 35.2061 13.3663 33.5506 13.3663 31.5087V24.5002C14.3044 25.2176 15.4633 25.9351 16.7877 26.5421C18.4985 27.3147 20.4851 27.9769 22.5821 28.4184V44.0908C22.5821 45.1394 21.6992 46.0223 20.6507 46.0223C19.6022 46.0223 18.7192 45.1394 18.7192 44.0908V36.9168C18.7192 35.9235 18.0018 35.2061 17.0637 35.2061ZM17.4499 23.1206C20.9266 21.3547 26.0036 20.3062 31.4117 20.3062C36.8198 20.3062 41.8968 21.3547 45.3734 23.1206C42.1175 24.7762 37.2613 25.9351 31.4117 25.9351C25.6173 25.9351 20.7058 24.7762 17.4499 23.1206ZM46.0908 26.5421C47.4153 25.9351 48.5742 25.2728 49.5123 24.5002V43.2079C49.2916 43.0423 49.0156 42.8768 48.8501 42.656L35.3298 29.1358C39.3583 28.8047 43.1109 27.9217 46.0908 26.5421ZM31.4117 11.3663C42.1175 11.3663 49.5123 15.2844 49.5123 18.6507C49.5123 19.4232 49.126 20.251 48.4086 21.0236C44.4353 18.4851 38.1994 16.9951 31.4117 16.9951C24.624 16.9951 18.3881 18.4851 14.4148 21.0236C13.6974 20.251 13.3111 19.4784 13.3111 18.6507C13.3663 15.2844 20.761 11.3663 31.4117 11.3663ZM31.4117 61.8603C20.7058 61.8603 13.3111 57.9422 13.3111 54.576V37.4687C13.9181 37.855 14.6355 38.1309 15.3529 38.3516V44.0357C15.3529 46.9605 17.7259 49.2782 20.5955 49.2782C23.5203 49.2782 25.838 46.9053 25.838 44.0357V28.9702C27.3832 29.191 28.9836 29.3013 30.6391 29.3013L46.3668 45.029C47.2497 45.9119 48.2982 46.5742 49.4019 46.9604V54.576C49.5123 57.9974 42.1175 61.8603 31.4117 61.8603ZM56.6863 39.4001C56.6863 41.2764 55.5826 42.932 53.8167 43.6494C53.4856 43.7597 53.1545 43.8701 52.8234 43.9253V33.4402L55.3067 35.9235C56.1897 36.8065 56.6311 37.9653 56.6311 39.1794V39.4001H56.6863Z" fill="black"/>
</g>
<defs>
<filter id="filter0_d" x="0" y="0" width="70" height="77.2266" filterUnits="userSpaceOnUse" color-interpolation-filters="sRGB">
<feFlood flood-opacity="0" result="BackgroundImageFix"/>
<feColorMatrix in="SourceAlpha" type="matrix" values="0 0 0 0 0 0 0 0 0 0 0 0 0 0 0 0 0 0 127 0"/>
<feOffset dy="2"/>
<feGaussianBlur stdDeviation="5"/>
<feColorMatrix type="matrix" values="0 0 0 0 0 0 0 0 0 0 0 0 0 0 0 0 0 0 0.3 0"/>
<feBlend mode="normal" in2="BackgroundImageFix" result="effect1_dropShadow"/>
<feBlend mode="normal" in="SourceGraphic" in2="effect1_dropShadow" result="shape"/>
</filter>
</defs>
</svg>
