<svg width="50" height="58" viewBox="0 0 50 58" fill="currentColor" xmlns="http://www.w3.org/2000/svg">
<path d="M21.4117 56.3437L5.18737 51.5426C4.19405 51.5426 1.32444 47.5693 1.32444 46.5759L3.36628 16.5002C3.36628 15.5069 22.3498 10.3195 23.3432 10.3195L37.9671 14.0721C38.9605 14.0721 40.5056 15.9484 40.5056 16.9417L40.9471 48.7833C40.8919 49.7767 22.405 56.3437 21.4117 56.3437Z" fill="currentColor"/>
<path d="M47.7348 25.6057L42.8786 20.7495V10.6507C42.8786 4.08367 32.3935 0 21.4117 0C10.154 0 0 4.19404 0 10.6507V46.576C0 53.1429 10.4851 57.2266 21.4117 57.2266C32.6142 57.2266 42.8234 53.0326 42.8234 46.576V39.3467C43.596 39.2916 44.3686 39.0708 45.086 38.7949C48.0659 37.5808 49.9974 34.656 49.9974 31.4553V31.2898C50.0526 29.0824 49.2248 27.0957 47.7348 25.6057ZM7.06365 27.2061C5.02181 27.2061 3.36627 25.5505 3.36627 23.5087V16.5002C4.30441 17.2176 5.46329 17.9351 6.78773 18.5421C8.49846 19.3147 10.4851 19.9769 12.5821 20.4184V36.0908C12.5821 37.1394 11.6992 38.0223 10.6507 38.0223C9.60215 38.0223 8.71919 37.1394 8.71919 36.0908V28.9168C8.71919 27.9235 8.00179 27.2061 7.06365 27.2061ZM7.44994 15.1206C10.9266 13.3547 16.0036 12.3062 21.4117 12.3062C26.8198 12.3062 31.8968 13.3547 35.3734 15.1206C32.1175 16.7762 27.2613 17.9351 21.4117 17.9351C15.6173 17.9351 10.7058 16.7762 7.44994 15.1206ZM36.0908 18.5421C37.4153 17.9351 38.5742 17.2728 39.5123 16.5002V35.2079C39.2916 35.0423 39.0156 34.8768 38.8501 34.656L25.3298 21.1358C29.3583 20.8047 33.1109 19.9217 36.0908 18.5421ZM21.4117 53.8603C10.7058 53.8603 3.31109 49.9422 3.31109 46.576V29.4687C3.91812 29.855 4.63552 30.1309 5.35292 30.3516V36.0357C5.35292 38.9605 7.72587 41.2782 10.5955 41.2782C13.5203 41.2782 15.838 38.9053 15.838 36.0357V20.9702C17.3832 21.191 18.9836 21.3013 20.6391 21.3013L36.3668 37.029C37.2497 37.9119 38.2982 38.5742 39.4019 38.9604V46.576C39.5123 49.9974 32.1175 53.8603 21.4117 53.8603ZM46.6863 31.4001C46.6863 33.2764 45.5826 34.932 43.8167 35.6494C43.4856 35.7597 43.1545 35.8701 42.8234 35.9253V25.4402L45.3067 27.9235C46.1897 28.8065 46.6311 29.9653 46.6311 31.1794V31.4001H46.6863Z" fill="black"/>
<path d="M21.4117 3.36627C32.1175 3.36627 39.5123 7.28439 39.5123 10.6507C39.5123 11.4232 39.126 12.251 38.4086 13.0236C34.4353 10.4851 28.1994 8.99512 21.4117 8.99512C14.624 8.99512 8.38809 10.4851 4.41478 13.0236C3.69738 12.251 3.31109 11.4784 3.31109 10.6507C3.36627 7.28439 10.761 3.36627 21.4117 3.36627Z" fill="white"/>
</svg>
