<svg width="80" height="17" viewBox="0 0 80 17" fill="currentColor" xmlns="http://www.w3.org/2000/svg">
<path d="M0 7.10864C0 9.53463 3.12364 11.3252 9.89154 12.7115C15.6761 13.8668 23.3116 14.5021 31.41 14.5599C43.4418 14.6177 53.9118 13.3469 59.1179 11.2675C59.2914 11.6141 59.4649 11.9606 59.6963 12.2494C60.9689 14.1556 63.0513 15.4841 65.4808 15.8884C68.9516 16.466 71.5546 14.9642 71.9595 14.6754C73.9841 13.5202 76.2979 12.8271 78.6696 12.6538C79.4216 12.596 80 11.9606 80 11.152C79.8843 8.49492 78.7274 6.01117 76.8185 4.16279C75.0253 2.37218 72.538 1.04366 69.7035 0.581566C68.3731 0.35052 67.1584 0.35052 66.927 0.35052C63.9769 0.466043 61.4317 1.79456 59.8699 3.93175C55.0108 1.62128 44.0202 0.0617109 31.4678 0.00394922C23.3695 -0.0538125 15.6761 0.523805 9.94939 1.62128C3.18149 2.9498 0 4.68265 0 7.10864ZM67.0427 3.18084C67.1584 3.18084 68.1417 3.18084 69.2408 3.35413C73.2321 4.04727 76.2401 6.70431 76.9921 9.99673C74.6782 10.3433 72.4801 11.0942 70.5134 12.2494C70.5134 12.2494 70.4555 12.2494 70.4555 12.3072C70.4555 12.3072 68.4888 13.5202 65.9436 13.1159C64.2661 12.8271 62.8778 11.9606 62.068 10.6899C61.3738 9.65016 61.1424 8.43716 61.4317 7.28193C61.9523 4.97146 64.3239 3.23861 67.0427 3.18084Z" fill="currentColor"/>
</svg>
