<svg width="100%" height="100%" viewBox="0 0 56 56" fill="currentColor" xmlns="http://www.w3.org/2000/svg">
<path d="M32 4C32 1.79086 30.2091 0 28 0C25.7909 0 24 1.79086 24 4H32ZM24 52C24 54.2091 25.7909 56 28 56C30.2091 56 32 54.2091 32 52H24ZM24 4V52H32V4H24Z" fill="currentColor"/>
<path d="M52 32C54.2091 32 56 30.2091 56 28C56 25.7909 54.2091 24 52 24L52 32ZM4 24C1.79086 24 9.65645e-08 25.7909 0 28C-9.65645e-08 30.2091 1.79086 32 4 32L4 24ZM52 24L4 24L4 32L52 32L52 24Z" fill="currentColor"/>
</svg>
