<svg width="32" height="33" viewBox="0 0 32 33" fill="none" xmlns="http://www.w3.org/2000/svg">
<path d="M30.4833 0H7.51667C6.65 0 6 0.704062 6 1.5706V2.4913C6 3.35783 6.65 4.0619 7.51667 4.0619H7.40833L9.4125 28H28.3708L30.5917 4.0619H30.4833C31.2958 4.0619 32 3.35783 32 2.4913V1.5706C32 0.704062 31.35 0 30.4833 0Z" fill="#6BBDA4"/>
<path d="M2.44312 8.49915L4.5276 32H24.25L26.6017 8.49915H2.44312Z" stroke="black" stroke-width="2" stroke-miterlimit="10" stroke-linecap="round" stroke-linejoin="round"/>
<path d="M26.4948 8.49915H2.55C1.69483 8.49915 1 7.81261 1 6.96763V6.06985C1 5.22487 1.69483 4.53833 2.55 4.53833H26.4414C27.2966 4.53833 27.9914 5.22487 27.9914 6.06985V6.96763C28.0448 7.81261 27.35 8.49915 26.4948 8.49915Z" stroke="black" stroke-width="2" stroke-miterlimit="10" stroke-linecap="round" stroke-linejoin="round"/>
<path d="M19.2794 4.48561H9.71214C9.65869 4.48561 9.65869 4.4328 9.65869 4.4328V3.74626C9.65869 2.53161 10.6742 1.5282 11.9035 1.5282H17.5156C18.5311 1.5282 19.3863 2.37317 19.3863 3.37658V4.37999C19.3863 4.4328 19.3328 4.48561 19.2794 4.48561Z" stroke="black" stroke-width="2" stroke-miterlimit="10" stroke-linecap="round" stroke-linejoin="round"/>
<path d="M8.9104 11.9319L10.0328 28.6201" stroke="black" stroke-width="2" stroke-miterlimit="10" stroke-linecap="round" stroke-linejoin="round"/>
<path d="M15.0569 11.9319V28.6201" stroke="black" stroke-width="2" stroke-miterlimit="10" stroke-linecap="round" stroke-linejoin="round"/>
<path d="M20.9896 11.879L19.8672 28.6201" stroke="black" stroke-width="2" stroke-miterlimit="10" stroke-linecap="round" stroke-linejoin="round"/>
</svg>
